<svg width="12" height="7" viewBox="0 0 12 7" fill="none" xmlns="http://www.w3.org/2000/svg">
<path d="M0.75 3.56255C0.75 3.67858 0.796094 3.78986 0.878141 3.87191C0.960188 3.95395 1.07147 4.00005 1.1875 4.00005H9.75638L7.87863 5.8778C7.79893 5.96031 7.75483 6.07082 7.75583 6.18553C7.75683 6.30025 7.80284 6.40998 7.88395 6.49109C7.96507 6.57221 8.0748 6.61822 8.18951 6.61922C8.30422 6.62021 8.41474 6.57612 8.49725 6.49642L11.1222 3.87142C11.1627 3.83117 11.1949 3.78332 11.2168 3.73061C11.2387 3.6779 11.25 3.62138 11.25 3.5643V3.56255C11.25 3.50567 11.2386 3.4488 11.2159 3.39542C11.1941 3.34238 11.1619 3.2942 11.1214 3.25367L8.49637 0.628671C8.41386 0.548977 8.30335 0.504879 8.18864 0.505876C8.07393 0.506873 7.9642 0.552884 7.88308 0.634C7.80196 0.715116 7.75595 0.824847 7.75496 0.939558C7.75396 1.05427 7.79806 1.16478 7.87775 1.2473L9.75638 3.12505H1.1875C1.07147 3.12505 0.960188 3.17114 0.878141 3.25319C0.796094 3.33523 0.75 3.44651 0.75 3.56255Z" fill="#888888"/>
</svg>
